<?xml version="1.0" standalone="no"?>
<!DOCTYPE svg PUBLIC "-//W3C//DTD SVG 20010904//EN"
 "http://www.w3.org/TR/2001/REC-SVG-20010904/DTD/svg10.dtd">
<svg version="1.0" xmlns="http://www.w3.org/2000/svg"
 width="144.000000pt" height="173.000000pt" viewBox="0 0 144.000000 173.000000"
 preserveAspectRatio="xMidYMid meet">

<g transform="translate(0.000000,173.000000) scale(0.100000,-0.100000)"
fill="#000000" stroke="none">
<path d="M748 1723 c7 -3 16 -2 19 1 4 3 -2 6 -13 5 -11 0 -14 -3 -6 -6z"/>
<path d="M715 1621 c-28 -7 -27 -7 17 -13 80 -9 227 -101 269 -166 9 -15 29
-40 43 -56 14 -16 28 -38 32 -50 3 -11 13 -29 21 -38 10 -12 12 -22 5 -34 -7
-12 -4 -30 9 -60 17 -37 24 -90 19 -146 -1 -9 -14 -21 -30 -26 -28 -10 -29
-10 -41 40 -15 63 -130 219 -216 293 -60 52 -165 110 -218 120 -24 4 -22 2 10
-10 21 -8 42 -19 45 -23 5 -8 30 -20 48 -23 4 0 15 -5 24 -10 15 -8 16 -13 5
-29 -6 -11 -16 -20 -20 -20 -5 0 -15 -7 -23 -15 -13 -13 -20 -12 -54 6 -22 12
-40 25 -40 29 0 5 -28 9 -62 8 -35 0 -58 -2 -53 -4 6 -2 36 -10 68 -19 49 -14
70 -28 126 -83 37 -37 74 -76 82 -86 13 -18 13 -19 -9 -7 -12 6 -30 23 -39 37
-27 41 -120 105 -192 131 -72 26 -111 48 -111 63 0 18 -35 11 -47 -9 -7 -11
-20 -20 -30 -20 -85 -2 -97 -6 -121 -41 -15 -23 -36 -39 -60 -46 -34 -10 -35
-11 -14 -18 17 -6 21 -12 16 -24 -4 -10 -8 -45 -9 -80 -2 -49 -7 -66 -21 -77
-17 -12 -17 -17 -7 -45 12 -33 8 -60 -9 -60 -6 0 -6 -6 2 -15 13 -15 5 -55
-14 -67 -7 -5 -5 -8 6 -8 11 0 20 15 28 53 15 63 50 160 56 154 3 -2 0 -16 -5
-29 -8 -22 -6 -27 14 -36 16 -8 22 -17 18 -30 -2 -11 0 -23 6 -26 7 -4 11 1
11 14 0 12 19 39 46 63 47 43 89 57 180 60 47 2 141 -39 149 -64 3 -10 25 -22
50 -28 45 -11 64 -41 27 -41 -10 0 -22 -4 -27 -9 -6 -5 -35 -16 -65 -26 -64
-21 -83 -33 -76 -51 3 -7 1 -16 -4 -19 -13 -8 -70 -163 -70 -190 0 -13 -4 -26
-9 -29 -5 -4 -3 -19 6 -36 10 -21 12 -35 5 -43 -6 -7 -12 -21 -14 -31 -3 -18
4 -20 59 -22 75 -3 98 12 89 58 -3 15 -9 42 -12 59 -5 23 -1 38 15 59 13 19
17 31 10 35 -6 4 -8 13 -5 20 3 8 -3 16 -12 18 -13 3 -11 6 10 17 15 7 25 18
21 23 -4 6 0 8 11 4 10 -4 35 -10 56 -13 26 -4 37 -11 34 -19 -11 -29 18 -24
54 10 46 41 62 90 62 190 0 46 -6 78 -21 108 -20 41 -20 41 0 17 28 -35 66
-104 53 -96 -6 4 -11 -1 -11 -11 -1 -112 -11 -227 -20 -236 -6 -6 -11 -14 -11
-17 0 -7 120 6 151 15 29 9 23 -14 -6 -25 -26 -10 -34 -30 -13 -30 6 0 0 -13
-15 -28 -15 -15 -27 -36 -27 -46 0 -9 -11 -28 -24 -41 -13 -13 -21 -26 -18
-29 3 -3 -11 -6 -31 -6 -46 0 -50 13 -43 142 4 64 3 99 -3 93 -5 -6 -12 -62
-14 -125 -3 -63 -8 -135 -11 -159 -9 -65 -56 -202 -72 -208 -8 -3 -14 -11 -14
-19 0 -8 -4 -14 -10 -14 -5 0 -28 -24 -50 -54 -22 -30 -55 -61 -72 -69 l-31
-15 72 -16 c50 -11 91 -14 141 -10 60 6 70 5 70 -9 0 -13 6 -14 32 -6 22 6 34
6 36 -1 2 -5 10 -10 17 -10 18 0 52 -49 56 -80 4 -24 8 -25 75 -28 l72 -3 21
35 c24 39 71 75 71 54 0 -7 -4 -30 -9 -50 l-9 -38 134 0 134 0 0 145 0 145
-25 0 c-21 0 -25 -5 -26 -32 -2 -32 -2 -32 -6 -5 -3 16 -11 31 -19 34 -27 10
-13 23 26 23 l40 0 0 50 c0 28 -4 50 -9 50 -15 0 -65 -63 -85 -108 -18 -40
-36 -55 -36 -31 0 7 -12 9 -35 5 -28 -6 -41 -2 -62 13 -14 12 -21 21 -14 21 6
0 11 16 11 35 l0 35 -72 1 c-64 1 -68 2 -33 9 22 4 90 11 150 15 61 4 114 9
118 12 5 3 2 12 -6 21 -8 10 -18 27 -21 39 -4 12 -12 20 -19 18 -34 -10 -237
-15 -237 -6 0 6 21 11 49 11 28 0 52 4 55 8 3 5 1 25 -5 45 -9 35 -12 37 -49
37 -35 0 -54 12 -32 22 4 2 15 19 25 38 20 41 66 122 71 127 2 2 1 -8 -1 -22
-5 -23 -3 -25 32 -25 l37 0 -7 37 c-9 48 -12 53 -34 53 -16 0 -17 5 -9 53 4
28 6 68 3 87 -3 19 -1 42 4 50 8 11 12 9 20 -13 6 -16 11 -38 11 -50 0 -14 3
-18 8 -10 4 6 45 15 92 20 l85 8 2 44 2 44 -79 -7 c-44 -3 -93 -9 -110 -12
-29 -6 -30 -6 -30 33 0 44 19 60 75 62 16 1 33 5 38 10 5 5 -19 7 -58 3 -55
-4 -67 -2 -63 9 3 8 1 26 -3 41 -8 31 -3 37 35 40 14 1 22 6 18 10 -4 4 -22 4
-40 -1 -31 -9 -49 -1 -38 18 5 7 75 19 139 24 13 1 17 11 17 46 l0 44 -50 -7
c-27 -3 -72 -9 -100 -12 -42 -6 -50 -4 -50 10 0 9 4 16 9 16 4 0 6 10 4 23 -2
12 0 28 5 35 5 7 64 21 138 33 71 11 134 21 139 23 25 10 -37 4 -191 -19
l-167 -25 -37 33 c-88 78 -120 95 -215 121 -27 8 -57 16 -65 19 -8 2 -28 2
-45 -2z m432 -453 c-3 -8 -6 -5 -6 6 -1 11 2 17 5 13 3 -3 4 -12 1 -19z m-352
2 c-3 -5 -12 -10 -18 -10 -7 0 -6 4 3 10 19 12 23 12 15 0z m11 -276 c-3 -9
-6 -18 -6 -20 0 -2 -7 -4 -15 -4 -18 0 -19 12 -3 28 17 17 31 15 24 -4z m-116
2 c0 -2 -13 -6 -29 -8 -17 -2 -28 -1 -25 4 5 8 54 12 54 4z m20 -46 c0 -5 -7
-10 -16 -10 -8 0 -12 5 -9 10 3 6 10 10 16 10 5 0 9 -4 9 -10z m462 -2 c-7 -7
-12 -22 -12 -34 0 -29 -16 -39 -35 -24 -12 10 -15 8 -15 -11 -1 -22 -2 -22
-11 -6 -6 10 -8 25 -5 34 5 12 1 14 -19 11 -14 -3 -25 -1 -25 3 0 5 3 9 8 9 4
1 30 7 57 15 63 17 72 18 57 3z m-105 -115 c-2 -16 -4 -5 -4 22 0 28 2 40 4
28 2 -13 2 -35 0 -50z m-76 -56 c-8 -8 -11 -3 -11 19 1 25 2 27 11 11 8 -14 8
-22 0 -30z m-457 -72 c4 -13 2 -14 -14 -5 -23 13 -26 20 -6 20 8 0 16 -7 20
-15z"/>
<path d="M766 1530 c12 -4 24 -16 28 -25 3 -10 12 -15 21 -11 8 3 15 0 15 -7
0 -15 35 -38 52 -33 7 1 10 1 6 -1 -13 -8 -9 -23 6 -23 32 0 25 21 -16 47 -24
15 -45 32 -46 36 -2 4 -11 2 -20 -5 -13 -11 -15 -10 -10 4 7 17 -10 29 -40 27
-13 0 -12 -2 4 -9z"/>
<path d="M917 1424 c-9 -9 16 -32 30 -27 6 3 9 11 6 19 -5 14 -25 19 -36 8z"/>
<path d="M1418 1413 c7 -3 16 -2 19 1 4 3 -2 6 -13 5 -11 0 -14 -3 -6 -6z"/>
<path d="M1285 1399 c-11 -4 -35 -8 -52 -8 -18 -1 -33 -6 -33 -12 0 -8 11 -9
33 -4 17 4 48 10 67 14 22 4 29 9 20 12 -8 4 -24 3 -35 -2z"/>
<path d="M1368 1403 c6 -2 18 -2 25 0 6 3 1 5 -13 5 -14 0 -19 -2 -12 -5z"/>
<path d="M1388 1383 c-25 -4 -28 -9 -28 -42 0 -21 2 -40 5 -42 2 -3 20 -3 40
-1 34 4 35 5 35 48 0 29 -4 44 -12 43 -7 -1 -25 -4 -40 -6z"/>
<path d="M44 1288 c-40 -10 -41 -12 -41 -49 0 -41 3 -45 27 -29 13 9 13 11 0
21 -11 8 -12 12 -2 16 6 2 12 11 12 19 0 8 3 13 8 13 25 -4 62 3 62 11 0 12
-10 11 -66 -2z"/>
<path d="M135 1280 c-3 -5 -2 -10 4 -10 5 0 13 5 16 10 3 6 2 10 -4 10 -5 0
-13 -4 -16 -10z"/>
<path d="M1365 1260 c-27 -4 -43 -8 -35 -8 8 -1 21 -11 28 -23 13 -20 14 -20
32 -4 11 10 26 15 35 12 10 -5 15 0 15 13 0 11 -6 19 -12 18 -7 0 -35 -4 -63
-8z"/>
<path d="M102 1239 c-7 -11 -11 -23 -9 -25 7 -7 29 24 25 36 -2 6 -9 1 -16
-11z"/>
<path d="M1288 1243 c7 -3 16 -2 19 1 4 3 -2 6 -13 5 -11 0 -14 -3 -6 -6z"/>
<path d="M1360 1190 c-11 -7 -8 -10 15 -9 17 0 39 4 50 9 16 7 14 9 -15 9 -19
0 -42 -4 -50 -9z"/>
<path d="M42 1183 c-10 -4 -9 -9 5 -20 13 -10 15 -16 6 -19 -16 -7 -17 -37 -1
-32 6 2 17 21 24 41 12 33 11 37 -4 36 -9 0 -23 -3 -30 -6z"/>
<path d="M1395 1161 c-27 -6 -30 -10 -30 -46 0 -39 1 -40 35 -40 35 0 35 0 38
48 2 26 -1 46 -5 46 -4 -1 -21 -4 -38 -8z"/>
<path d="M1310 1076 c0 -9 30 -14 35 -6 4 6 -3 10 -14 10 -12 0 -21 -2 -21 -4z"/>
<path d="M1243 1063 c9 -2 23 -2 30 0 6 3 -1 5 -18 5 -16 0 -22 -2 -12 -5z"/>
<path d="M248 943 c-46 -11 1 -54 61 -57 13 -1 26 -7 29 -15 3 -8 0 -11 -6 -7
-7 4 -21 2 -32 -4 -24 -13 -28 -60 -5 -60 8 0 15 4 15 10 0 5 7 7 15 4 8 -3
20 -2 26 2 9 5 7 10 -7 15 -15 6 -13 8 11 8 24 1 27 3 15 12 -12 9 -11 10 8 6
24 -6 28 3 10 21 -9 9 -9 12 0 12 21 0 13 30 -10 39 -30 11 -109 19 -130 14z"/>
<path d="M9 938 c-6 -21 -5 -38 2 -38 5 0 9 9 9 20 0 16 -7 28 -11 18z"/>
<path d="M1370 902 c0 -47 2 -50 40 -44 27 4 30 8 30 43 0 38 -1 39 -35 39
-34 0 -35 -1 -35 -38z"/>
<path d="M0 870 c0 -5 4 -10 9 -10 5 0 16 -3 25 -6 11 -4 16 -1 16 10 0 10 -9
16 -25 16 -14 0 -25 -4 -25 -10z"/>
<path d="M215 860 c-3 -5 -3 -10 1 -10 4 0 0 -8 -9 -17 -13 -15 -14 -31 -7
-93 5 -42 9 -80 10 -85 6 -28 -3 -47 -25 -57 -14 -6 -25 -18 -26 -27 0 -10 -4
-7 -10 7 -13 34 -44 25 -44 -13 0 -22 -5 -30 -17 -29 -9 1 -19 -5 -22 -13 -5
-11 7 -13 72 -7 74 6 109 14 64 14 -11 0 -23 4 -26 8 -2 4 11 6 30 4 25 -3 34
-9 34 -23 0 -12 -5 -16 -14 -13 -10 4 -16 -3 -19 -23 l-4 -28 -2 28 c-1 23 -5
27 -23 23 -13 -3 -58 -8 -100 -11 l-78 -7 0 -244 0 -244 248 0 249 0 -23 68
c-13 37 -26 88 -30 115 -4 26 -10 47 -13 47 -4 0 -23 20 -41 45 l-34 46 -56
-6 c-30 -3 -98 -8 -151 -11 l-96 -5 6 33 c5 31 6 31 9 6 3 -24 7 -26 35 -22
18 2 74 8 126 14 51 5 96 11 98 14 2 2 -3 18 -12 36 l-16 32 -67 -6 c-194 -16
-222 -17 -222 -8 0 5 44 12 97 15 54 3 99 9 100 14 2 5 21 7 43 5 22 -2 40 0
40 4 0 5 -11 44 -25 87 -22 67 -25 97 -25 212 0 123 -6 155 -25 125z m173
-637 c-10 -2 -28 -2 -40 0 -13 2 -5 4 17 4 22 1 32 -1 23 -4z m-145 -10 c-7
-2 -19 -2 -25 0 -7 3 -2 5 12 5 14 0 19 -2 13 -5z"/>
<path d="M1271 854 c0 -11 3 -14 6 -6 3 7 2 16 -1 19 -3 4 -6 -2 -5 -13z"/>
<path d="M17 826 c-23 -18 -21 -28 5 -24 13 2 24 11 26 21 4 20 -6 21 -31 3z"/>
<path d="M1389 836 c-2 -3 -28 -6 -58 -7 l-53 -3 7 -30 c3 -17 9 -47 12 -66 4
-31 59 -199 66 -207 2 -1 20 0 40 4 36 6 37 6 37 51 l0 45 -45 -5 c-34 -4 -45
-2 -45 8 0 8 -4 14 -9 14 -7 0 -31 73 -31 93 0 3 29 8 65 12 l65 7 0 44 c0 39
-2 44 -23 44 -13 0 -26 -2 -28 -4z"/>
<path d="M405 810 c3 -5 10 -10 16 -10 5 0 9 5 9 10 0 6 -7 10 -16 10 -8 0
-12 -4 -9 -10z"/>
<path d="M0 730 c0 -13 7 -20 19 -20 14 0 18 5 14 20 -3 11 -12 20 -19 20 -8
0 -14 -9 -14 -20z"/>
<path d="M48 692 l-48 -3 0 -40 c0 -39 0 -39 39 -39 56 0 99 10 105 26 3 8 0
11 -10 7 -9 -3 -18 5 -27 23 -11 27 -16 29 -59 26z"/>
<path d="M1190 630 c-19 -6 -9 -8 38 -9 34 -1 62 2 62 7 0 10 -70 12 -100 2z"/>
<path d="M1243 602 l-43 -3 0 -46 0 -46 57 7 c31 4 59 8 61 11 5 5 -18 74 -26
77 -4 2 -26 2 -49 0z"/>
<path d="M0 546 c0 -30 4 -46 13 -46 24 0 34 16 33 50 -1 28 -5 36 -23 38 -21
3 -23 -1 -23 -42z"/>
<path d="M1387 485 c-3 -18 2 -30 17 -40 31 -22 36 -19 36 25 0 35 -3 40 -24
40 -17 0 -25 -7 -29 -25z"/>
<path d="M471 451 c-12 -12 -27 -17 -40 -14 -31 8 -25 -4 11 -23 21 -11 47
-15 80 -12 48 5 66 -5 27 -15 -11 -3 -23 -15 -26 -26 -3 -11 -15 -22 -27 -24
-11 -2 -4 -5 17 -6 71 -2 131 37 120 80 -3 11 3 22 16 29 30 15 17 32 -15 19
-24 -9 -118 -4 -136 7 -4 3 -16 -4 -27 -15z"/>
<path d="M1278 387 l-68 -9 0 -39 0 -39 48 0 c46 1 47 2 69 48 12 25 21 47 20
47 -1 0 -32 -3 -69 -8z"/>
</g>
</svg>
